{"title":"Tombstone 1993 DVDrip English Klam","uid":6749879,"size":2190270425,"categoryP":"video","categoryS":"movies","magnet":"?xt=urn:btih:b433d87b5918daf9ba0dfe0992a17dc7b5a8b5ff&amp;dn=Tombstone+1993+DVDrip+English+Klam&amp;tr=udp%3A%2F%2Ftracker.openbittorrent.com%3A80&amp;tr=udp%3A%2F%2Fopen.demonii.com%3A1337&amp;tr=udp%3A%2F%2Ftracker.coppersurfer.tk%3A6969&amp;tr=udp%3A%2F%2Fexodus.desync.com%3A6969","seeders":1,"leechers":0,"uploader":"Klambake","files":-1,"time":1318849481,"description":"With: Kurt Russell, Val Kilmer and Sam Elliott\n\n1879. Na de burgeroorlog begint Wyatt Earp een nieuw leven met zijn broers in Arizona. Zijn vriend Doc Holliday gaat met hem mee in de hoop dat zijn TBC geneest. Ze verdienen goed en kunnen zich overal buitenhouden tot zijn broer Virgil de misdaad in de stad niet meer kan aanzien. Wyatt krijgt het zelf ook moeilijk omdat zijn vrouw opium gebruikt en hij verliefd wordt op een actrice.\n\nA successful lawman's plans to retire anonymously in Tombstone, Arizona, are disrupted by the kind of outlaws he was famous for eliminating. \n\n------------------ Dutch Friends ------------------\nYou can find my Friends at: http://www.Film-Test.nl \n------ They got my dutch subs ----- and more ------\n\nGeneral:\n\nComplete name                    : Tombstone\\TombStone.avi\nFormat                           : AVI\nFormat/Info                      : Audio Video Interleave\nFile size                        : 2.04 GiB\nDuration                         : 2h 3mn\nOverall bit rate                 : 2 357 Kbps\n\nVideo:\n\nFormat                           : MPEG-4 Visual\nFormat profile                   : Simple@L3\nFormat settings, BVOP            : No\nFormat settings, QPel            : No\nFormat settings, GMC             : No warppoints\nFormat settings, Matrix          : Default (H.263)\nCodec ID                         : XVID\nCodec ID/Hint                    : XviD\nDuration                         : 2h 3mn\nBit rate                         : 1 898 Kbps\nWidth                            : 720 pixels\nHeight                           : 304 pixels\nDisplay aspect ratio             : 2.35:1\nFrame rate                       : 25.000 fps\nColor space                      : YUV\nChroma subsampling               : 4:2:0\nBit depth                        : 8 bits\nScan type                        : Progressive\nCompression mode                 : Lossy\nBits/(Pixel*Frame)               : 0.347\nStream size                      : 1.64 GiB (81%)\nWriting library                  : XviD 1.1.2 (UTC 2006-11-01)\n\nAudio:\n\nFormat                           : AC-3\nFormat/Info                      : Audio Coding 3\nMode extension                   : CM (complete main)\nCodec ID                         : 2000\nDuration                         : 2h 3mn\nBit rate mode                    : Constant\nBit rate                         : 448 Kbps\nChannel(s)                       : 6 channels\nChannel positions                : Front: L C R, Side: L R, LFE\nSampling rate                    : 48.0 KHz\nBit depth                        : 16 bits\nCompression mode                 : Lossy\nStream size                      : 397 MiB (19%)\nAlignment                        : Aligned on interleaves\nInterleave, duration             : 32 ms (0.80 video frame)\nInterleave, preload duration     : 1312 ms\n\n","torrent":{"xt":"urn:btih:b433d87b5918daf9ba0dfe0992a17dc7b5a8b5ff","amp;dn":"Tombstone+1993+DVDrip+English+Klam","amp;tr":["udp%3A%2F%2Ftracker.openbittorrent.com%3A80","udp%3A%2F%2Fopen.demonii.com%3A1337","udp%3A%2F%2Ftracker.coppersurfer.tk%3A6969","udp%3A%2F%2Fexodus.desync.com%3A6969"],"infoHash":"b433d87b5918daf9ba0dfe0992a17dc7b5a8b5ff","infoHashBuffer":{"type":"Buffer","data":[180,51,216,123,89,24,218,249,186,13,254,9,146,161,125,199,181,168,181,255]},"announce":[],"urlList":[]}}